<svg xmlns="http://www.w3.org/2000/svg" version="1.1" xmlns:xlink="http://www.w3.org/1999/xlink" xmlns:svgjs="http://svgjs.com/svgjs" width="1440" height="763" preserveAspectRatio="none" viewBox="0 0 1440 763"><g mask="url(&quot;#SvgjsMask1283&quot;)" fill="none"><rect width="1440" height="763" x="0" y="0" fill="url(#SvgjsLinearGradient1284)"></rect><path d="M896.1042045492394 468.74657632598957L1010.2649672328668 524.4265006223281 951.7841288455779 354.58581364236227z" fill="rgba(14, 98, 139, 0.78)" class="triangle-float3"></path><path d="M324.34 492.87 a173.57 173.57 0 1 0 347.14 0 a173.57 173.57 0 1 0 -347.14 0z" fill="rgba(14, 98, 139, 0.78)" class="triangle-float2"></path><path d="M12.304576375255635 167.1805368678364L161.5783742225214 296.94226963992486 291.34010699460987 147.6684717926591 142.0663091473441 17.906739020570626z" fill="rgba(14, 98, 139, 0.78)" class="triangle-float3"></path><path d="M1066.31 482.58 a206.45 206.45 0 1 0 412.9 0 a206.45 206.45 0 1 0 -412.9 0z" fill="rgba(14, 98, 139, 0.78)" class="triangle-float2"></path><path d="M802.1946029500625 577.4333775993364L831.2572110130639 393.9392919211543 647.7631253348818 364.8766838581529 618.7005172718805 548.370769536335z" fill="rgba(14, 98, 139, 0.78)" class="triangle-float2"></path><path d="M173.26 625.68 a164.31 164.31 0 1 0 328.62 0 a164.31 164.31 0 1 0 -328.62 0z" fill="rgba(14, 98, 139, 0.78)" class="triangle-float2"></path><path d="M766.1840432279272 49.60194817241365L768.9277361250228 215.86854221899893 894.8157355344955 143.18707187219633z" fill="rgba(14, 98, 139, 0.78)" class="triangle-float1"></path><path d="M587.2249953013619 663.0724415964554L498.1034506938044 704.6305003535617 605.0013111332428 817.5337878863448z" fill="rgba(14, 98, 139, 0.78)" class="triangle-float3"></path><path d="M55.484,523.114C79.477,523.155,103.993,516.433,117.061,496.311C131.272,474.43,133.692,445.73,120.277,423.352C107.18,401.505,80.949,393.017,55.484,393.596C31.133,394.15,8.088,405.274,-4.4,426.186C-17.208,447.635,-18.858,474.847,-5.727,496.1C6.836,516.435,31.581,523.073,55.484,523.114" fill="rgba(14, 98, 139, 0.78)" class="triangle-float3"></path><path d="M380.0245910479716-113.48111651460339L184.01804774822858-96.33276599897272 201.16639826385926 99.67377730077034 397.1729415636023 82.52542678513966z" fill="rgba(14, 98, 139, 0.78)" class="triangle-float3"></path><path d="M825.1393933395539 72.50539364828239L687.3269968609576 62.86861211623909 677.6902153289143 200.68100859483536 815.5026118075106 210.31779012687866z" fill="rgba(14, 98, 139, 0.78)" class="triangle-float2"></path><path d="M870.86 183.5 a166.78 166.78 0 1 0 333.56 0 a166.78 166.78 0 1 0 -333.56 0z" fill="rgba(14, 98, 139, 0.78)" class="triangle-float3"></path></g><defs><mask id="SvgjsMask1283"><rect width="1440" height="763" fill="#ffffff"></rect></mask><linearGradient x1="88.25%" y1="-22.18%" x2="11.75%" y2="122.18%" gradientUnits="userSpaceOnUse" id="SvgjsLinearGradient1284"><stop stop-color="#0e2a47" offset="0"></stop><stop stop-color="rgba(141, 0, 158, 1)" offset="1"></stop></linearGradient><style>
            @keyframes float1 {
                0%{transform: translate(0, 0)}
                50%{transform: translate(-10px, 0)}
                100%{transform: translate(0, 0)}
            }

            .triangle-float1 {
                animation: float1 5s infinite;
            }

            @keyframes float2 {
                0%{transform: translate(0, 0)}
                50%{transform: translate(-5px, -5px)}
                100%{transform: translate(0, 0)}
            }

            .triangle-float2 {
                animation: float2 4s infinite;
            }

            @keyframes float3 {
                0%{transform: translate(0, 0)}
                50%{transform: translate(0, -10px)}
                100%{transform: translate(0, 0)}
            }

            .triangle-float3 {
                animation: float3 6s infinite;
            }
        </style></defs></svg>