<svg xmlns="http://www.w3.org/2000/svg" version="1.1" xmlns:xlink="http://www.w3.org/1999/xlink" xmlns:svgjs="http://svgjs.com/svgjs" width="1540" height="763" preserveAspectRatio="none" viewBox="0 0 1540 763"><g mask="url(&quot;#SvgjsMask1016&quot;)" fill="none"><rect width="1540" height="763" x="0" y="0" fill="url(#SvgjsLinearGradient1017)"></rect><g mask="url(&quot;#SvgjsMask1019&quot;)"><path d="M110 330L154 286L198 286L242 286M198 330L242 374M22 374L66 374L110 374L154 374L198 418M-22 374L22 374L66 330L110 330L154 330L198 330L242 330" stroke="url(#SvgjsLinearGradient1018)" stroke-width="7.33"></path><path d="M231 330 a11 11 0 1 0 22 0 a11 11 0 1 0 -22 0zM231 286 a11 11 0 1 0 22 0 a11 11 0 1 0 -22 0zM231 374 a11 11 0 1 0 22 0 a11 11 0 1 0 -22 0zM187 418 a11 11 0 1 0 22 0 a11 11 0 1 0 -22 0z" fill="url(#SvgjsLinearGradient1018)"></path><path d="M110 462L154 418M22 462L66 418L110 418M-22 418L22 462L66 462L110 462L154 462" stroke="url(#SvgjsLinearGradient1018)" stroke-width="7.33"></path><path d="M143 462 a11 11 0 1 0 22 0 a11 11 0 1 0 -22 0zM143 418 a11 11 0 1 0 22 0 a11 11 0 1 0 -22 0zM99 418 a11 11 0 1 0 22 0 a11 11 0 1 0 -22 0z" fill="url(#SvgjsLinearGradient1018)"></path><path d="M330 242L374 286M286 242L330 286L374 330L418 330M462 242L506 286L550 286M-22 330L22 330L66 286L110 242L154 242L198 242L242 242L286 242L330 242L374 242L418 242L462 242L506 242" stroke="url(#SvgjsLinearGradient1018)" stroke-width="7.33"></path><path d="M495 242 a11 11 0 1 0 22 0 a11 11 0 1 0 -22 0zM363 286 a11 11 0 1 0 22 0 a11 11 0 1 0 -22 0zM407 330 a11 11 0 1 0 22 0 a11 11 0 1 0 -22 0zM539 286 a11 11 0 1 0 22 0 a11 11 0 1 0 -22 0z" fill="url(#SvgjsLinearGradient1018)"></path><path d="M110 506L154 550L198 550L242 550L286 550L330 550L374 550M198 506L242 462L286 462L330 462M726 550L770 506M990 550L1034 594L1078 594L1122 594M506 506L550 462L594 462L638 462L682 462M902 550L946 506M-22 462L22 506L66 506L110 506L154 506L198 506L242 506L286 506L330 506L374 506L418 506L462 506L506 506L550 506L594 506L638 550L682 550L726 550L770 550L814 550L858 550L902 550L946 550L990 550L1034 550L1078 550" stroke="url(#SvgjsLinearGradient1018)" stroke-width="7.33"></path><path d="M1067 550 a11 11 0 1 0 22 0 a11 11 0 1 0 -22 0zM363 550 a11 11 0 1 0 22 0 a11 11 0 1 0 -22 0zM319 462 a11 11 0 1 0 22 0 a11 11 0 1 0 -22 0zM759 506 a11 11 0 1 0 22 0 a11 11 0 1 0 -22 0zM1111 594 a11 11 0 1 0 22 0 a11 11 0 1 0 -22 0zM671 462 a11 11 0 1 0 22 0 a11 11 0 1 0 -22 0zM935 506 a11 11 0 1 0 22 0 a11 11 0 1 0 -22 0z" fill="url(#SvgjsLinearGradient1018)"></path><path d="M462 198L506 154L550 154L594 154M-22 286L22 242L66 242L110 198L154 198L198 198L242 198L286 198L330 198L374 198L418 198L462 198L506 198" stroke="url(#SvgjsLinearGradient1018)" stroke-width="7.33"></path><path d="M495 198 a11 11 0 1 0 22 0 a11 11 0 1 0 -22 0zM583 154 a11 11 0 1 0 22 0 a11 11 0 1 0 -22 0z" fill="url(#SvgjsLinearGradient1018)"></path><path d="M550 638L594 594L638 594M154 638L198 594L242 594M418 682L462 638L506 594L550 594L594 550M506 638L550 682M66 550L110 550M858 638L902 682M-22 506L22 550L66 550L110 594L154 638L198 638L242 638L286 638L330 638L374 682L418 682L462 682L506 638L550 638L594 638L638 638L682 638L726 638L770 638L814 638L858 638L902 638L946 682L990 682L1034 682" stroke="url(#SvgjsLinearGradient1018)" stroke-width="7.33"></path><path d="M1023 682 a11 11 0 1 0 22 0 a11 11 0 1 0 -22 0zM627 594 a11 11 0 1 0 22 0 a11 11 0 1 0 -22 0zM231 594 a11 11 0 1 0 22 0 a11 11 0 1 0 -22 0zM583 550 a11 11 0 1 0 22 0 a11 11 0 1 0 -22 0zM539 682 a11 11 0 1 0 22 0 a11 11 0 1 0 -22 0zM99 550 a11 11 0 1 0 22 0 a11 11 0 1 0 -22 0zM891 682 a11 11 0 1 0 22 0 a11 11 0 1 0 -22 0z" fill="url(#SvgjsLinearGradient1018)"></path><path d="M-22 242L22 198L66 198L110 154L154 154L198 154L242 154L286 154L330 154L374 154L418 154" stroke="url(#SvgjsLinearGradient1018)" stroke-width="7.33"></path><path d="M407 154 a11 11 0 1 0 22 0 a11 11 0 1 0 -22 0z" fill="url(#SvgjsLinearGradient1018)"></path><path d="M22 594L66 638L110 682M-22 550L22 594L66 594L110 638L154 682L198 682L242 682L286 682L330 682" stroke="url(#SvgjsLinearGradient1018)" stroke-width="7.33"></path><path d="M319 682 a11 11 0 1 0 22 0 a11 11 0 1 0 -22 0zM99 682 a11 11 0 1 0 22 0 a11 11 0 1 0 -22 0z" fill="url(#SvgjsLinearGradient1018)"></path><path d="M22 154L66 110M-22 198L22 154L66 154L110 110L154 110L198 110L242 110L286 110L330 110L374 110L418 110L462 110L506 110L550 110L594 110" stroke="url(#SvgjsLinearGradient1018)" stroke-width="7.33"></path><path d="M583 110 a11 11 0 1 0 22 0 a11 11 0 1 0 -22 0zM55 110 a11 11 0 1 0 22 0 a11 11 0 1 0 -22 0z" fill="url(#SvgjsLinearGradient1018)"></path></g></g><defs><mask id="SvgjsMask1016"><rect width="1540" height="763" fill="#ffffff"></rect></mask><linearGradient x1="12.61%" y1="-25.46%" x2="87.39%" y2="125.46%" gradientUnits="userSpaceOnUse" id="SvgjsLinearGradient1017"><stop stop-color="#0e2a47" offset="0"></stop><stop stop-color="#00459e" offset="1"></stop></linearGradient><linearGradient x1="0" y1="381.5" x2="1201.2" y2="381.5" gradientUnits="userSpaceOnUse" id="SvgjsLinearGradient1018"><stop stop-color="#3a7cc3" offset="0"></stop><stop stop-color="#dd1133" offset="1"></stop></linearGradient><mask id="SvgjsMask1019"><rect width="1540" height="763" fill="white"></rect><path d="M236.5 330 a5.5 5.5 0 1 0 11 0 a5.5 5.5 0 1 0 -11 0zM236.5 286 a5.5 5.5 0 1 0 11 0 a5.5 5.5 0 1 0 -11 0zM236.5 374 a5.5 5.5 0 1 0 11 0 a5.5 5.5 0 1 0 -11 0zM192.5 418 a5.5 5.5 0 1 0 11 0 a5.5 5.5 0 1 0 -11 0z" fill="black"></path><path d="M148.5 462 a5.5 5.5 0 1 0 11 0 a5.5 5.5 0 1 0 -11 0zM148.5 418 a5.5 5.5 0 1 0 11 0 a5.5 5.5 0 1 0 -11 0zM104.5 418 a5.5 5.5 0 1 0 11 0 a5.5 5.5 0 1 0 -11 0z" fill="black"></path><path d="M500.5 242 a5.5 5.5 0 1 0 11 0 a5.5 5.5 0 1 0 -11 0zM368.5 286 a5.5 5.5 0 1 0 11 0 a5.5 5.5 0 1 0 -11 0zM412.5 330 a5.5 5.5 0 1 0 11 0 a5.5 5.5 0 1 0 -11 0zM544.5 286 a5.5 5.5 0 1 0 11 0 a5.5 5.5 0 1 0 -11 0z" fill="black"></path><path d="M1072.5 550 a5.5 5.5 0 1 0 11 0 a5.5 5.5 0 1 0 -11 0zM368.5 550 a5.5 5.5 0 1 0 11 0 a5.5 5.5 0 1 0 -11 0zM324.5 462 a5.5 5.5 0 1 0 11 0 a5.5 5.5 0 1 0 -11 0zM764.5 506 a5.5 5.5 0 1 0 11 0 a5.5 5.5 0 1 0 -11 0zM1116.5 594 a5.5 5.5 0 1 0 11 0 a5.5 5.5 0 1 0 -11 0zM676.5 462 a5.5 5.5 0 1 0 11 0 a5.5 5.5 0 1 0 -11 0zM940.5 506 a5.5 5.5 0 1 0 11 0 a5.5 5.5 0 1 0 -11 0z" fill="black"></path><path d="M500.5 198 a5.5 5.5 0 1 0 11 0 a5.5 5.5 0 1 0 -11 0zM588.5 154 a5.5 5.5 0 1 0 11 0 a5.5 5.5 0 1 0 -11 0z" fill="black"></path><path d="M1028.5 682 a5.5 5.5 0 1 0 11 0 a5.5 5.5 0 1 0 -11 0zM632.5 594 a5.5 5.5 0 1 0 11 0 a5.5 5.5 0 1 0 -11 0zM236.5 594 a5.5 5.5 0 1 0 11 0 a5.5 5.5 0 1 0 -11 0zM588.5 550 a5.5 5.5 0 1 0 11 0 a5.5 5.5 0 1 0 -11 0zM544.5 682 a5.5 5.5 0 1 0 11 0 a5.5 5.5 0 1 0 -11 0zM104.5 550 a5.5 5.5 0 1 0 11 0 a5.5 5.5 0 1 0 -11 0zM896.5 682 a5.5 5.5 0 1 0 11 0 a5.5 5.5 0 1 0 -11 0z" fill="black"></path><path d="M412.5 154 a5.5 5.5 0 1 0 11 0 a5.5 5.5 0 1 0 -11 0z" fill="black"></path><path d="M324.5 682 a5.5 5.5 0 1 0 11 0 a5.5 5.5 0 1 0 -11 0zM104.5 682 a5.5 5.5 0 1 0 11 0 a5.5 5.5 0 1 0 -11 0z" fill="black"></path><path d="M588.5 110 a5.5 5.5 0 1 0 11 0 a5.5 5.5 0 1 0 -11 0zM60.5 110 a5.5 5.5 0 1 0 11 0 a5.5 5.5 0 1 0 -11 0z" fill="black"></path></mask></defs></svg>